<svg xmlns="http://www.w3.org/2000/svg" xmlns:xlink="http://www.w3.org/1999/xlink" width="338" height="182" viewBox="0 0 338 182">
  <defs>
    <clipPath id="clip-path">
      <rect width="338" height="182" fill="none"/>
    </clipPath>
  </defs>
  <g id="Repeat_Grid_1" data-name="Repeat Grid 1" clip-path="url(#clip-path)">
    <g transform="translate(-106 -490)">
      <g id="Ellipse_2" data-name="Ellipse 2" transform="translate(106 490)" fill="#fff" stroke="#023a53" stroke-width="1">
        <circle cx="17" cy="17" r="17" stroke="none"/>
        <circle cx="17" cy="17" r="16.5" fill="none"/>
      </g>
    </g>
    <g transform="translate(-57 -490)">
      <g id="Ellipse_2-2" data-name="Ellipse 2" transform="translate(106 490)" fill="#fff" stroke="#023a53" stroke-width="1">
        <circle cx="17" cy="17" r="17" stroke="none"/>
        <circle cx="17" cy="17" r="16.5" fill="none"/>
      </g>
    </g>
    <g transform="translate(-8 -490)">
      <g id="Ellipse_2-3" data-name="Ellipse 2" transform="translate(106 490)" fill="#fff" stroke="#023a53" stroke-width="1">
        <circle cx="17" cy="17" r="17" stroke="none"/>
        <circle cx="17" cy="17" r="16.5" fill="none"/>
      </g>
    </g>
    <g transform="translate(41 -490)">
      <g id="Ellipse_2-4" data-name="Ellipse 2" transform="translate(106 490)" fill="#fff" stroke="#023a53" stroke-width="1">
        <circle cx="17" cy="17" r="17" stroke="none"/>
        <circle cx="17" cy="17" r="16.5" fill="none"/>
      </g>
    </g>
    <g transform="translate(90 -490)">
      <g id="Ellipse_2-5" data-name="Ellipse 2" transform="translate(106 490)" fill="#fff" stroke="#023a53" stroke-width="1">
        <circle cx="17" cy="17" r="17" stroke="none"/>
        <circle cx="17" cy="17" r="16.5" fill="none"/>
      </g>
    </g>
    <g transform="translate(139 -490)">
      <g id="Ellipse_2-6" data-name="Ellipse 2" transform="translate(106 490)" fill="#fff" stroke="#023a53" stroke-width="1">
        <circle cx="17" cy="17" r="17" stroke="none"/>
        <circle cx="17" cy="17" r="16.5" fill="none"/>
      </g>
    </g>
    <g transform="translate(188 -490)">
      <g id="Ellipse_2-7" data-name="Ellipse 2" transform="translate(106 490)" fill="#fff" stroke="#023a53" stroke-width="1">
        <circle cx="17" cy="17" r="17" stroke="none"/>
        <circle cx="17" cy="17" r="16.5" fill="none"/>
      </g>
    </g>
    <g transform="translate(-106 -441)">
      <g id="Ellipse_2-8" data-name="Ellipse 2" transform="translate(106 490)" fill="#fff" stroke="#023a53" stroke-width="1">
        <circle cx="17" cy="17" r="17" stroke="none"/>
        <circle cx="17" cy="17" r="16.5" fill="none"/>
      </g>
    </g>
    <g transform="translate(-57 -441)">
      <g id="Ellipse_2-9" data-name="Ellipse 2" transform="translate(106 490)" fill="#fff" stroke="#023a53" stroke-width="1">
        <circle cx="17" cy="17" r="17" stroke="none"/>
        <circle cx="17" cy="17" r="16.5" fill="none"/>
      </g>
    </g>
    <g transform="translate(-8 -441)">
      <g id="Ellipse_2-10" data-name="Ellipse 2" transform="translate(106 490)" fill="#fff" stroke="#023a53" stroke-width="1">
        <circle cx="17" cy="17" r="17" stroke="none"/>
        <circle cx="17" cy="17" r="16.5" fill="none"/>
      </g>
    </g>
    <g transform="translate(41 -441)">
      <g id="Ellipse_2-11" data-name="Ellipse 2" transform="translate(106 490)" fill="#fff" stroke="#023a53" stroke-width="1">
        <circle cx="17" cy="17" r="17" stroke="none"/>
        <circle cx="17" cy="17" r="16.5" fill="none"/>
      </g>
    </g>
    <g transform="translate(90 -441)">
      <g id="Ellipse_2-12" data-name="Ellipse 2" transform="translate(106 490)" fill="#fff" stroke="#023a53" stroke-width="1">
        <circle cx="17" cy="17" r="17" stroke="none"/>
        <circle cx="17" cy="17" r="16.5" fill="none"/>
      </g>
    </g>
    <g transform="translate(139 -441)">
      <g id="Ellipse_2-13" data-name="Ellipse 2" transform="translate(106 490)" fill="#fff" stroke="#023a53" stroke-width="1">
        <circle cx="17" cy="17" r="17" stroke="none"/>
        <circle cx="17" cy="17" r="16.5" fill="none"/>
      </g>
    </g>
    <g transform="translate(188 -441)">
      <g id="Ellipse_2-14" data-name="Ellipse 2" transform="translate(106 490)" fill="#fff" stroke="#023a53" stroke-width="1">
        <circle cx="17" cy="17" r="17" stroke="none"/>
        <circle cx="17" cy="17" r="16.5" fill="none"/>
      </g>
    </g>
    <g transform="translate(-106 -392)">
      <g id="Ellipse_2-15" data-name="Ellipse 2" transform="translate(106 490)" fill="#fff" stroke="#023a53" stroke-width="1">
        <circle cx="17" cy="17" r="17" stroke="none"/>
        <circle cx="17" cy="17" r="16.5" fill="none"/>
      </g>
    </g>
    <g transform="translate(-57 -392)">
      <g id="Ellipse_2-16" data-name="Ellipse 2" transform="translate(106 490)" fill="#fff" stroke="#023a53" stroke-width="1">
        <circle cx="17" cy="17" r="17" stroke="none"/>
        <circle cx="17" cy="17" r="16.5" fill="none"/>
      </g>
    </g>
    <g transform="translate(-8 -392)">
      <g id="Ellipse_2-17" data-name="Ellipse 2" transform="translate(106 490)" fill="#fff" stroke="#023a53" stroke-width="1">
        <circle cx="17" cy="17" r="17" stroke="none"/>
        <circle cx="17" cy="17" r="16.5" fill="none"/>
      </g>
    </g>
    <g transform="translate(41 -392)">
      <g id="Ellipse_2-18" data-name="Ellipse 2" transform="translate(106 490)" fill="#fff" stroke="#023a53" stroke-width="1">
        <circle cx="17" cy="17" r="17" stroke="none"/>
        <circle cx="17" cy="17" r="16.5" fill="none"/>
      </g>
    </g>
    <g transform="translate(90 -392)">
      <g id="Ellipse_2-19" data-name="Ellipse 2" transform="translate(106 490)" fill="#fff" stroke="#023a53" stroke-width="1">
        <circle cx="17" cy="17" r="17" stroke="none"/>
        <circle cx="17" cy="17" r="16.5" fill="none"/>
      </g>
    </g>
    <g transform="translate(139 -392)">
      <g id="Ellipse_2-20" data-name="Ellipse 2" transform="translate(106 490)" fill="#fff" stroke="#023a53" stroke-width="1">
        <circle cx="17" cy="17" r="17" stroke="none"/>
        <circle cx="17" cy="17" r="16.5" fill="none"/>
      </g>
    </g>
    <g transform="translate(188 -392)">
      <g id="Ellipse_2-21" data-name="Ellipse 2" transform="translate(106 490)" fill="#fff" stroke="#023a53" stroke-width="1">
        <circle cx="17" cy="17" r="17" stroke="none"/>
        <circle cx="17" cy="17" r="16.5" fill="none"/>
      </g>
    </g>
    <g transform="translate(-106 -343)">
      <g id="Ellipse_2-22" data-name="Ellipse 2" transform="translate(106 490)" fill="#fff" stroke="#023a53" stroke-width="1">
        <circle cx="17" cy="17" r="17" stroke="none"/>
        <circle cx="17" cy="17" r="16.5" fill="none"/>
      </g>
    </g>
    <g transform="translate(-57 -343)">
      <g id="Ellipse_2-23" data-name="Ellipse 2" transform="translate(106 490)" fill="#fff" stroke="#023a53" stroke-width="1">
        <circle cx="17" cy="17" r="17" stroke="none"/>
        <circle cx="17" cy="17" r="16.5" fill="none"/>
      </g>
    </g>
    <g transform="translate(-8 -343)">
      <g id="Ellipse_2-24" data-name="Ellipse 2" transform="translate(106 490)" fill="#fff" stroke="#023a53" stroke-width="1">
        <circle cx="17" cy="17" r="17" stroke="none"/>
        <circle cx="17" cy="17" r="16.5" fill="none"/>
      </g>
    </g>
    <g transform="translate(41 -343)">
      <g id="Ellipse_2-25" data-name="Ellipse 2" transform="translate(106 490)" fill="#fff" stroke="#023a53" stroke-width="1">
        <circle cx="17" cy="17" r="17" stroke="none"/>
        <circle cx="17" cy="17" r="16.5" fill="none"/>
      </g>
    </g>
    <g transform="translate(90 -343)">
      <g id="Ellipse_2-26" data-name="Ellipse 2" transform="translate(106 490)" fill="#fff" stroke="#023a53" stroke-width="1">
        <circle cx="17" cy="17" r="17" stroke="none"/>
        <circle cx="17" cy="17" r="16.5" fill="none"/>
      </g>
    </g>
    <g transform="translate(139 -343)">
      <g id="Ellipse_2-27" data-name="Ellipse 2" transform="translate(106 490)" fill="#fff" stroke="#023a53" stroke-width="1">
        <circle cx="17" cy="17" r="17" stroke="none"/>
        <circle cx="17" cy="17" r="16.5" fill="none"/>
      </g>
    </g>
    <g transform="translate(188 -343)">
      <g id="Ellipse_2-28" data-name="Ellipse 2" transform="translate(106 490)" fill="#fff" stroke="#023a53" stroke-width="1">
        <circle cx="17" cy="17" r="17" stroke="none"/>
        <circle cx="17" cy="17" r="16.5" fill="none"/>
      </g>
    </g>
  </g>
</svg>
