<svg xmlns="http://www.w3.org/2000/svg" width="32.5" height="25.278" viewBox="0 0 32.5 25.278">
  <path id="Icon_awesome-book-open" data-name="Icon awesome-book-open" d="M30.595,2.253c-3.092.175-9.238.814-13.032,3.137a.867.867,0,0,0-.41.743V26.664a.893.893,0,0,0,1.314.761c3.9-1.965,9.549-2.5,12.34-2.647a1.76,1.76,0,0,0,1.694-1.73V3.985a1.769,1.769,0,0,0-1.905-1.732ZM14.937,5.389C11.144,3.067,5,2.429,1.906,2.253A1.77,1.77,0,0,0,0,3.985V23.048a1.759,1.759,0,0,0,1.694,1.73c2.792.147,8.441.683,12.344,2.649a.89.89,0,0,0,1.31-.759V6.122A.849.849,0,0,0,14.937,5.389Z" transform="translate(0 -2.25)" fill="#fdfeff"/>
</svg>
